<svg width="96" height="80" viewBox="0 0 96 80" fill="none" xmlns="http://www.w3.org/2000/svg">
  <path
    fill-rule="evenodd"
    clip-rule="evenodd"
    d="M44.9626 26.5986C52.1645 21.1559 66.3417 8.75906 78.137 5.31463C90.0625 1.8322 101.463 19.1945 78.7203 35.0474C73.3449 38.7944 64.7965 43.349 55.3474 46.5016C61.8818 70.6289 75.4563 83.5454 85.3416 67.948C87.6584 64.2924 86.0929 61.7741 88.0197 58.6059C89.6114 56.8187 91.2005 56.9829 92.7949 57.5498C95.5567 58.5318 96.3495 61.8553 91.4571 69.9789C85.3416 80.1335 62.8064 92.2377 45.9679 41.3837C45.4568 39.8402 57.358 39.3528 70.5105 32.2852C78.7203 27.8736 88.0193 15.8756 85.3416 12.4635C83.5217 10.2401 75.2019 12.8196 65.4004 17.9065C55.1799 23.2107 46.2131 29.1985 43.8705 31.5542C41.1898 49.1013 37.9226 58.9309 34.4878 64.6987C22.0894 84.1142 3.37355 79.7275 4.83225 64.6987C5.50246 57.7936 12.7908 49.7511 40.8374 29.1983V28.0698C40.6037 25.5427 38.9282 29.6045 34.5543 32.7815C31.9489 34.674 22.6761 42.1105 16.8957 33.3414C15.1365 28.0698 19.3251 25.7864 21.5033 14.4945C22.5688 8.97047 20.9169 6.45205 18.3199 5.96463C11.5342 3.77125 9.35606 12.951 6.17265 12.951C2.40283 13.3301 -2.99221 12.2198 5.58623 4.74609C8.43456 2.26455 13.5448 0.278086 18.3199 1.25305C25.7758 2.77538 26.4749 7.85533 25.1056 14.4945C24.3516 18.096 23.7652 18.4751 23.095 21.4809C21.0844 27.0862 22.341 37.8907 34.5543 28.0698C40.6037 23.2054 39.5147 11.0826 44.6249 11.0826C46.2166 11.4076 45.9653 17.6628 44.9626 26.5986ZM39.9335 34.0726C36.3871 48.2348 31.6399 76.0871 13.6285 69.248C1.31378 61.8553 26.6973 42.3586 39.9335 34.0726Z"
    fill="#140E0E"
   
  />
</svg>
