<svg width="36" height="24" viewBox="0 0 36 24" fill="none" xmlns="http://www.w3.org/2000/svg">
<path d="M1.75 10.5C0.921573 10.5 0.25 11.1716 0.25 12C0.25 12.8284 0.921573 13.5 1.75 13.5V10.5ZM34.8107 13.0607C35.3964 12.4749 35.3964 11.5251 34.8107 10.9393L25.2647 1.3934C24.6789 0.807611 23.7292 0.807611 23.1434 1.3934C22.5576 1.97919 22.5576 2.92893 23.1434 3.51472L31.6287 12L23.1434 20.4853C22.5576 21.0711 22.5576 22.0208 23.1434 22.6066C23.7292 23.1924 24.6789 23.1924 25.2647 22.6066L34.8107 13.0607ZM1.75 13.5H33.75V10.5H1.75V13.5Z" fill="black"/>
</svg>
